<?xml version="1.0" standalone="no"?>
<!DOCTYPE svg PUBLIC "-//W3C//DTD SVG 20010904//EN"
 "http://www.w3.org/TR/2001/REC-SVG-20010904/DTD/svg10.dtd">
<svg version="1.0" xmlns="http://www.w3.org/2000/svg"
 width="380.000000pt" height="389.000000pt" viewBox="0 0 380.000000 389.000000"
 preserveAspectRatio="xMidYMid meet">

<g transform="translate(0.000000,389.000000) scale(0.100000,-0.100000)"
fill="white" stroke="white">
<path d="M2510 3884 c-434 -51 -827 -178 -1295 -418 -275 -141 -448 -254 -644
-422 -322 -275 -507 -555 -528 -799 -20 -248 164 -546 536 -866 64 -55 225
-183 358 -285 277 -212 378 -298 639 -547 287 -273 449 -385 634 -437 157 -43
354 -36 522 20 461 154 716 527 921 1346 124 493 136 842 47 1259 -33 150
-111 378 -179 521 -171 357 -378 551 -649 610 -67 14 -296 26 -362 18z m-430
-1419 c47 -25 126 -68 175 -94 50 -27 155 -82 235 -123 263 -136 432 -230 423
-238 -10 -9 -443 -270 -448 -270 -3 0 -649 -380 -732 -432 l-33 -20 0 686 0
686 148 -75 c81 -41 185 -95 232 -120z" />
</g>
</svg>